<?xml version="1.0" encoding="utf-8"?>
<!-- Generator: Adobe Illustrator 27.0.1, SVG Export Plug-In . SVG Version: 6.00 Build 0)  -->
<svg version="1.1" id="Layer_1" xmlns="http://www.w3.org/2000/svg" xmlns:xlink="http://www.w3.org/1999/xlink" x="0px" y="0px"
	 viewBox="0 0 700 700" style="enable-background:new 0 0 700 700;" xml:space="preserve">
<style type="text/css">
	.st0{fill:#FFFFFF;stroke:#000000;stroke-width:3;stroke-miterlimit:10;}
	.st1{fill:none;}
	.st2{fill:#FFFFFF;}
	.st3{fill:url(#SVGID_1_);}
	.st4{opacity:0.42;}
	.st5{fill:url(#SVGID_00000121238851299767120370000001821553995981952690_);}
</style>
<g id="Layer_1_00000156574794439138657500000008464417672184533150_">
	<path class="st0" d="M-1792.1,489.2c-8.1,8.5-21.5,8.8-30,0.7c-0.3-0.2-0.5-0.5-0.7-0.7l-94.9-94.5c-9.9-9.9-20.9-24.7-20.9-43.9
		s11-34,20.9-43.9l94.9-94.4c8.1-8.5,21.5-8.8,30-0.7c0.2,0.2,0.5,0.5,0.7,0.7l15.9,15.9c8.5,8.1,8.8,21.5,0.7,30
		c-0.2,0.3-0.5,0.5-0.7,0.7l-87.3,87.8c-0.8,1.1-1.2,2.5-1.1,3.8c0,1.3,0.4,2.7,1.1,3.8l87.3,87.8c8.5,8.1,8.8,21.5,0.7,30
		c-0.2,0.3-0.5,0.5-0.7,0.7L-1792.1,489.2z"/>
	<path class="st0" d="M-1510.5,193.3l-186.6,323.3c-7.1,12.6-15.4,19.2-27.4,19.2h-20.3c-8.2,0-14.8-6.6-14.8-15.4
		c-0.1-4.3,1-8.5,3.3-12.1l185-321.1c7.1-12.6,15.4-19.2,27.4-19.2h20.3c8.8,0,15.9,6,15.9,14.8
		C-1507.7,186.6-1508.6,190.2-1510.5,193.3z"/>
	<path class="st0" d="M-1322.3,394.8l-95,94.4c-8.1,8.5-21.5,8.8-30,0.7c-0.3-0.2-0.5-0.5-0.7-0.7l-15.9-15.9
		c-8.5-8.1-8.8-21.5-0.7-30c0.2-0.3,0.5-0.5,0.7-0.7l87.3-87.8c1.1-1.1,1.1-2.2,1.1-3.8c0-1.6,0-3.3-1.1-3.8l-87.2-87.8
		c-8.5-8.1-8.8-21.5-0.7-30c0.2-0.3,0.5-0.5,0.7-0.7l15.8-16.1c8.1-8.5,21.5-8.8,30-0.7c0.2,0.2,0.5,0.5,0.7,0.7l95,94.4
		c9.9,9.9,20.9,24.7,20.9,43.9C-1301.4,370.1-1312.4,384.9-1322.3,394.8z"/>
	<rect x="-2423.5" y="-1352.6" class="st1" width="2556.3" height="375.3"/>
	<text transform="matrix(1 0 0 1 -2423.4653 -1135.5531)" class="st2" style="font-family:'TetraITCStd-Light'; font-size:324px;">RapDv</text>
	<path class="st0" d="M-2804.1-1132.3c-5.5,5.8-14.8,6.1-20.6,0.5c-0.2-0.2-0.3-0.3-0.5-0.5l-65.2-64.8
		c-6.8-6.8-14.3-16.9-14.3-30.1s7.5-23.3,14.3-30.1l65.2-64.8c5.6-5.8,14.8-6,20.6-0.5c0.2,0.2,0.3,0.3,0.5,0.5l10.9,10.9
		c5.8,5.5,6.1,14.8,0.5,20.6c-0.2,0.2-0.3,0.3-0.5,0.5l-59.9,60.3c-0.5,0.8-0.8,1.7-0.8,2.6s0.3,1.8,0.8,2.6l59.9,60.3
		c5.8,5.5,6.1,14.8,0.5,20.6c-0.2,0.2-0.3,0.3-0.5,0.5L-2804.1-1132.3z"/>
	<path class="st0" d="M-2610.9-1335.3l-128.1,221.9c-4.9,8.6-10.6,13.2-18.8,13.2h-13.9c-5.6,0-10.2-4.5-10.2-10.5
		c-0.1-2.9,0.7-5.8,2.3-8.3l127-220.3c4.9-8.7,10.5-13.2,18.8-13.2h13.9c6,0,10.9,4.1,10.9,10.2
		C-2608.9-1339.9-2609.6-1337.5-2610.9-1335.3z"/>
	<path class="st0" d="M-2481.7-1197.1l-65.2,64.8c-5.5,5.8-14.8,6.1-20.6,0.5c-0.2-0.2-0.3-0.3-0.5-0.5l-10.9-10.9
		c-5.8-5.5-6.1-14.8-0.5-20.6c0.2-0.2,0.3-0.3,0.5-0.5l59.9-60.3c0.7-0.7,0.7-1.5,0.7-2.6s0-2.3-0.7-2.6l-59.9-60.3
		c-5.8-5.5-6.1-14.8-0.5-20.6c0.2-0.2,0.3-0.3,0.5-0.5l10.9-10.9c5.6-5.8,14.8-6,20.6-0.5c0.2,0.2,0.3,0.3,0.5,0.5l65.2,64.8
		c6.8,6.8,14.3,17,14.3,30.1S-2474.9-1203.9-2481.7-1197.1z"/>
	<rect x="-2448.7" y="-2214.7" class="st1" width="2556.3" height="375.3"/>
	
		<text transform="matrix(1 0 0 1 -2448.7195 -1978.1836)" class="st2" style="font-family:'Miami'; font-size:304px; letter-spacing:5;">RapDv</text>
	
		<text transform="matrix(1 0 0 1 -2448.7195 -1978.1836)" style="fill:none;stroke:#000000;stroke-width:8;stroke-miterlimit:10; font-family:'Miami'; font-size:304px; letter-spacing:5;">RapDv</text>
	<rect x="-2447.3" y="-1770.4" class="st1" width="2556.3" height="375.3"/>
	<text transform="matrix(1 0 0 1 -2447.2935 -1553.3042)" class="st2" style="font-family:'TetraITCStd-Light'; font-size:324px;">RapDv</text>
	
		<text transform="matrix(1 0 0 1 -2447.2935 -1553.3042)" style="fill:none;stroke:#000000;stroke-width:8;stroke-miterlimit:10; font-family:'TetraITCStd-Light'; font-size:324px;">RapDv</text>
	<g>
		<path class="st2" d="M-2677.6-2370.7c-5.5,0-10.8-2.1-14.8-5.9c-0.3-0.2-0.5-0.5-0.8-0.8l-13.8-13.7c-8.5-8.1-8.9-21.7-0.7-30.3
			c0.2-0.3,0.5-0.5,0.7-0.7l75.7-76.1c0.1-0.1,0.1-0.7,0.1-1.2c0-0.3,0-0.8,0-1.1l-75.7-76.2c-8.5-8.1-8.8-21.7-0.7-30.3
			c0.2-0.3,0.5-0.5,0.8-0.8l13.8-13.8c4-4.2,9.6-6.6,15.5-6.6c5.5,0,10.8,2.1,14.8,5.9c0.2,0.2,0.5,0.5,0.7,0.7l82.4,81.9
			c12.6,12.6,19,26.1,19,40.3c0,14.1-6.4,27.6-19,40.2l-82.4,81.9C-2666.1-2373.1-2671.6-2370.7-2677.6-2370.7z"/>
		<path d="M-2677.5-2625.2c4.6,0,9.1,1.7,12.7,5.1c0.2,0.2,0.4,0.4,0.6,0.6l82.4,81.9c8.6,8.6,18.1,21.4,18.1,38.1
			s-9.6,29.5-18.1,38.1l-82.4,81.9c-3.6,3.8-8.5,5.7-13.3,5.7c-4.6,0-9.1-1.7-12.7-5.1c-0.2-0.2-0.4-0.4-0.6-0.6l-13.8-13.8
			c-7.4-7-7.7-18.7-0.6-26c0.2-0.2,0.4-0.4,0.6-0.6l75.7-76.2c0.9-0.9,0.9-1.9,0.9-3.3c0-1.4,0-2.9-0.9-3.3l-75.7-76.2
			c-7.4-7-7.7-18.7-0.6-26c0.2-0.2,0.4-0.4,0.6-0.6l13.8-13.8C-2687.2-2623.3-2682.4-2625.2-2677.5-2625.2 M-2677.5-2631.3
			L-2677.5-2631.3c-6.8,0-13,2.7-17.7,7.5l-13.7,13.7c-0.3,0.3-0.5,0.5-0.8,0.8c-9.3,9.8-8.9,25.3,0.8,34.6l74.7,75.2l-74.7,75.2
			c-0.3,0.3-0.5,0.5-0.8,0.8c-4.5,4.7-6.9,11-6.8,17.5c0.2,6.5,2.8,12.6,7.5,17.1l13.7,13.7c0.3,0.3,0.5,0.5,0.8,0.8
			c4.6,4.4,10.6,6.8,16.9,6.8c6.7,0,13.1-2.8,17.7-7.5l82.4-81.9c13.2-13.2,19.9-27.5,19.9-42.4c0-15-6.7-29.2-19.9-42.4l-82.4-81.9
			c-0.2-0.3-0.5-0.5-0.8-0.8C-2665.2-2628.9-2671.2-2631.3-2677.5-2631.3L-2677.5-2631.3z"/>
	</g>
	<g>
		<g>
			<path class="st2" d="M-2843-2371.3c-0.4,0-0.9-0.1-1.3-0.3c-1.3-0.6-1.9-2-1.7-3.4l22.3-108.4c0.2-0.9-0.1-1.7-0.8-2.5
				c-0.8-0.8-2-1.3-3.3-1.3h-49.9c-1.2,0-2.3-0.7-2.8-1.8s-0.3-2.3,0.4-3.3l114.8-137.2c0.6-0.7,1.5-1.1,2.3-1.1
				c0.4,0,0.9,0.1,1.3,0.3c1.3,0.6,1.9,2,1.7,3.4l-22.3,108.4c-0.2,0.9,0.1,1.7,0.8,2.5c0.8,0.8,2,1.3,3.3,1.3h49.9
				c1.2,0,2.3,0.7,2.8,1.8s0.3,2.3-0.4,3.3l-114.7,137.2C-2841.2-2371.7-2842.1-2371.3-2843-2371.3z"/>
			<path d="M-2762.9-2627.4l-22.3,108.4c-0.4,1.8,0.2,3.7,1.6,5.2c1.4,1.4,3.4,2.3,5.5,2.3h49.9l-114.8,137.2l22.3-108.4
				c0.4-1.8-0.2-3.7-1.6-5.2c-1.4-1.4-3.4-2.3-5.5-2.3h-49.9L-2762.9-2627.4 M-2762.9-2633.5c-1.8,0-3.5,0.8-4.7,2.2l-114.8,137.2
				c-1.5,1.8-1.9,4.4-0.8,6.5c1,2.2,3.2,3.5,5.5,3.5h49.9c0.5,0,0.9,0.2,1,0.3l-22.3,108.2c-0.6,2.7,0.8,5.5,3.3,6.7
				c0.8,0.4,1.8,0.6,2.7,0.6c1.8,0,3.5-0.8,4.7-2.2l114.8-137.2c1.5-1.8,1.9-4.4,0.8-6.5c-1-2.2-3.2-3.5-5.5-3.5h-49.9
				c-0.5,0-0.9-0.2-1-0.3l22.3-108.2c0.6-2.7-0.8-5.5-3.3-6.7C-2761.1-2633.3-2762-2633.5-2762.9-2633.5L-2762.9-2633.5z"/>
		</g>
	</g>
	<rect x="-2450.5" y="-2620.7" class="st1" width="2556.3" height="375.3"/>
	
		<text transform="matrix(1 0 0 1 -2450.4841 -2402.4277)" class="st2" style="font-family:'HemiHeadRg-BoldItalic'; font-size:304px; letter-spacing:5;">RapDv</text>
	
		<text transform="matrix(1 0 0 1 -2450.4841 -2402.4277)" style="fill:none;stroke:#000000;stroke-width:8;stroke-miterlimit:10; font-family:'HemiHeadRg-BoldItalic'; font-size:304px; letter-spacing:5;">RapDv</text>
	<g>
		<path class="st2" d="M-1818.3,1377.9l26-125c0.4-1.9,0.7-3.5,0.8-4.8c0.2-1.3,0.3-2.5,0.3-3.7c0-6-5.3-9.1-15.8-9.1h-123.9
			l-30,142.6h-86l59.4-280h86l-15.8,74.1h117.7c8.3,0,13.9-1.3,16.7-4c2.8-2.6,5.2-7.9,7.1-15.8l13.6-62.2c0.4-1.9,0.7-3.6,0.8-5.1
			c0.2-1.5,0.3-2.8,0.3-4c0-4.5-1.3-7.5-4-9.1c-2.6-1.5-7.2-2.3-13.6-2.3h-203.1l15.8-74.7h243.3c19.6,0,33.7,3.5,42.4,10.5
			s13,17.6,13,32c0,3.4-0.3,7-0.8,10.7c-0.6,3.8-1.2,7.7-2,11.9l-17.5,83.2c-4.2,19.6-11.7,33.5-22.6,41.6
			c-10.9,8.1-23,12.9-36.2,14.4c12.1,0.8,22.2,3.5,30.5,8.2s12.4,13.1,12.4,25.2c0,1.9,0,3.9,0,5.9c0,2.1-0.4,4.2-1.1,6.5
			l-27.7,132.9h-86V1377.9z"/>
		<path class="st2" d="M-1613.5,1377.9c-14.3,0-24.7-2.7-31.1-8.2c-6.4-5.5-9.6-13.7-9.6-24.6c0-5.3,0.9-12.3,2.8-20.9l14.1-67.9
			c2.3-10.6,4.9-19.4,7.9-26.6s6.8-12.8,11.3-17c4.5-4.1,10-7.1,16.4-8.8c6.4-1.7,14.1-2.5,23.2-2.5h145.5l-10.2,48.7h-104.1
			c-5.3,0-9.1,0.9-11.3,2.8c-2.3,1.9-4,5.9-5.1,11.9l-6.2,30c-0.4,1.9-0.7,3.4-0.8,4.5c-0.2,1.1-0.3,2.3-0.3,3.4
			c0,4.9,3.6,7.4,10.7,7.4h132.4l30-140.3c0.4-1.5,0.6-3.6,0.6-6.2c0-3-0.9-5.4-2.8-7.1c-1.9-1.7-5.5-2.5-10.7-2.5h-194l13-62.2
			h234.2c16.6,0,28.3,2.7,35.1,8.2s10.2,14.1,10.2,25.7c0,5.3-0.9,12.6-2.8,22.1l-48.7,230.2L-1613.5,1377.9L-1613.5,1377.9z"/>
		<path class="st2" d="M-1186.9,1377.9l14.1-67.9h95c5.7,0,9.7-1,12.2-3.1c2.4-2.1,4.4-6.3,5.9-12.7l24.9-116
			c0.4-1.9,0.6-4.3,0.6-7.4c0-3.4-0.8-5.7-2.5-7.1c-1.7-1.3-4.8-2-9.3-2h-123.3l-71.8,336h-79.2l86.6-406.2h242.1
			c16.6,0,28.3,2.8,35.1,8.5s10.2,14.3,10.2,26c0,7.2-0.8,14.3-2.3,21.5l-36.8,174.2c-4.2,19.6-11.8,33.9-22.9,42.7
			c-11.1,8.9-25.7,13.3-43.8,13.3h-134.8V1377.9z"/>
		<path class="st2" d="M-927.8,1377.9l59.4-279.5h84.9l-43.6,204.8h120.5c20,0,32.6-12.3,37.9-36.8l33.9-159.5
			c1.1-4.5,1.7-8.9,1.7-13c0-15.8-8.1-23.8-24.3-23.8h-205.4l15.8-75.2h221.2c55.8,0,83.7,22.6,83.7,67.9c0,9.4-1.1,19.4-3.4,30
			l-40.2,187.3c-6.8,32.1-20.2,56.4-40.2,73s-47,24.9-80.9,24.9L-927.8,1377.9L-927.8,1377.9z"/>
		<path class="st2" d="M-446.4,1377.9l-50.9-286.3h85.4l32.8,208.2l125.6-208.2h81.5l-179.3,286.3H-446.4z"/>
	</g>
	<g>
		<path class="st2" d="M-2069-243.1l26-125c0.4-1.9,0.7-3.5,0.8-4.8c0.2-1.3,0.3-2.5,0.3-3.7c0-6-5.3-9.1-15.8-9.1h-123.9l-30,142.6
			h-86l59.4-280h86L-2168-449h117.7c8.3,0,13.9-1.3,16.7-4c2.8-2.6,5.2-7.9,7.1-15.8l13.6-62.2c0.4-1.9,0.7-3.6,0.8-5.1
			c0.2-1.5,0.3-2.8,0.3-4c0-4.5-1.3-7.5-4-9.1c-2.6-1.5-7.2-2.3-13.6-2.3h-203.1l15.8-74.7h243.3c19.6,0,33.7,3.5,42.4,10.5
			s13,17.6,13,32c0,3.4-0.3,7-0.8,10.7c-0.6,3.8-1.2,7.7-2,11.9l-17.5,83.2c-4.2,19.6-11.7,33.5-22.6,41.6
			c-10.9,8.1-23,12.9-36.2,14.4c12.1,0.8,22.2,3.5,30.5,8.2s12.4,13.1,12.4,25.2c0,1.9,0,3.9,0,5.9c0,2.1-0.4,4.2-1.1,6.5l-27.7,133
			H-2069z"/>
		<path class="st2" d="M-1864.2-243.1c-14.3,0-24.7-2.7-31.1-8.2c-6.4-5.5-9.6-13.7-9.6-24.6c0-5.3,0.9-12.3,2.8-20.9l14.1-67.9
			c2.3-10.6,4.9-19.4,7.9-26.6s6.8-12.8,11.3-17c4.5-4.1,10-7.1,16.4-8.8c6.4-1.7,14.1-2.5,23.2-2.5h145.4l-10.2,48.7h-104
			c-5.3,0-9.1,0.9-11.3,2.8c-2.3,1.9-4,5.9-5.1,11.9l-6.2,30c-0.4,1.9-0.7,3.4-0.8,4.5c-0.2,1.1-0.3,2.3-0.3,3.4
			c0,4.9,3.6,7.4,10.7,7.4h132.4l30-140.3c0.4-1.5,0.6-3.6,0.6-6.2c0-3-0.9-5.4-2.8-7.1c-1.9-1.7-5.5-2.5-10.7-2.5h-194l13-62.2
			h234.2c16.6,0,28.3,2.7,35.1,8.2s10.2,14.1,10.2,25.7c0,5.3-0.9,12.6-2.8,22.1l-48.7,230.2h-249.7V-243.1z"/>
		<path class="st2" d="M-1437.7-243.1l14.1-67.9h95c5.7,0,9.7-1,12.2-3.1c2.4-2.1,4.4-6.3,5.9-12.7l24.9-116
			c0.4-1.9,0.6-4.3,0.6-7.4c0-3.4-0.8-5.7-2.5-7.1c-1.7-1.3-4.8-2-9.3-2h-123.3l-71.8,336h-79.2l86.6-406.2h242.1
			c16.6,0,28.3,2.8,35.1,8.5s10.2,14.3,10.2,26c0,7.2-0.8,14.3-2.3,21.5l-36.8,174.2c-4.2,19.6-11.8,33.9-22.9,42.7
			c-11.1,8.9-25.7,13.3-43.8,13.3h-134.8V-243.1z"/>
		<path class="st2" d="M-1178.6-243.1l59.4-279.5h84.9l-43.6,204.8h120.5c20,0,32.6-12.3,37.9-36.8l33.9-159.5
			c1.1-4.5,1.7-8.9,1.7-13c0-15.8-8.1-23.8-24.3-23.8h-205.4l15.8-75.2h221.2c55.8,0,83.7,22.6,83.7,67.9c0,9.4-1.1,19.4-3.4,30
			l-40.2,187.3c-6.8,32.1-20.2,56.4-40.2,73s-47,24.9-80.9,24.9L-1178.6-243.1L-1178.6-243.1z"/>
		<path class="st2" d="M-697.1-243.1l-51-286.3h85.4l32.8,208.2l125.7-208.2h81.5L-602-243.1L-697.1-243.1L-697.1-243.1z"/>
	</g>
</g>
<g>
	<g>
		<g>
			<linearGradient id="SVGID_1_" gradientUnits="userSpaceOnUse" x1="248.8848" y1="773.6414" x2="518.8925" y2="-352.4882">
				<stop  offset="0" style="stop-color:#2C96FF"/>
				<stop  offset="1" style="stop-color:#0061A3"/>
			</linearGradient>
			<path class="st3" d="M297.6,404c1.1-5.5-0.6-11.2-4.7-15.5c-4.1-4.3-10.1-6.7-16.5-6.7H174.1c-18.6,0-28.8-21.8-16.9-36.1
				L414.2,38.5c14.7-17.5,43-3.8,38.4,18.5l-49.1,238.6c-1.1,5.5,0.6,11.2,4.7,15.5c4.1,4.3,10.1,6.8,16.5,6.8h102.3
				c18.6,0,28.8,21.8,16.9,36.1L286.8,661.1c-14.7,17.5-43,3.8-38.4-18.5L297.6,404z"/>
		</g>
	</g>
</g>
<g class="st4">
	<g>
		<g>
			
				<linearGradient id="SVGID_00000142893533523910710540000014721322560722172813_" gradientUnits="userSpaceOnUse" x1="332.4544" y1="752.8387" x2="500.379" y2="52.4704">
				<stop  offset="0" style="stop-color:#2C96FF"/>
				<stop  offset="1" style="stop-color:#C3D6EE"/>
			</linearGradient>
			<path style="fill:url(#SVGID_00000142893533523910710540000014721322560722172813_);" d="M543.7,354.4L286.8,661.5
				c-14.6,17.5-43,3.8-38.4-18.5l46.7-226.8l111.4-135.3l-3.1,15.1c-1.1,5.5,0.6,11.2,4.7,15.5c4.1,4.3,10.1,6.8,16.5,6.8h102.3
				C545.5,318.3,555.6,340.1,543.7,354.4z"/>
		</g>
	</g>
</g>
</svg>
